<mxfile host="app.diagrams.net" modified="2024-05-26T07:12:00.367Z" agent="Mozilla/5.0 (X11; Linux x86_64) AppleWebKit/537.36 (KHTML, like Gecko) Chrome/125.0.0.0 Safari/537.36" etag="JParm4YCavIKWZoEwOxH" version="24.4.8" type="device">
  <diagram name="Page-1" id="qsMujqLNs6Iw7YWohVRW">
    <mxGraphModel dx="1604" dy="919" grid="1" gridSize="10" guides="1" tooltips="1" connect="1" arrows="1" fold="1" page="1" pageScale="1" pageWidth="850" pageHeight="1100" math="0" shadow="0">
      <root>
        <mxCell id="0" />
        <mxCell id="1" parent="0" />
        <mxCell id="RA5m8bi9TABdozbW4E4G-41" value="Actor" style="shape=umlActor;verticalLabelPosition=bottom;verticalAlign=top;html=1;outlineConnect=0;" vertex="1" parent="1">
          <mxGeometry x="130" y="320" width="30" height="60" as="geometry" />
        </mxCell>
        <mxCell id="RA5m8bi9TABdozbW4E4G-42" value="Actor" style="shape=umlActor;verticalLabelPosition=bottom;verticalAlign=top;html=1;outlineConnect=0;" vertex="1" parent="1">
          <mxGeometry x="130" y="840" width="30" height="60" as="geometry" />
        </mxCell>
        <mxCell id="RA5m8bi9TABdozbW4E4G-43" value="Actor" style="shape=umlActor;verticalLabelPosition=bottom;verticalAlign=top;html=1;outlineConnect=0;" vertex="1" parent="1">
          <mxGeometry x="710" y="520" width="30" height="60" as="geometry" />
        </mxCell>
        <mxCell id="RA5m8bi9TABdozbW4E4G-44" value="" style="swimlane;startSize=0;" vertex="1" parent="1">
          <mxGeometry x="240" y="10" width="355" height="1070" as="geometry" />
        </mxCell>
        <mxCell id="RA5m8bi9TABdozbW4E4G-48" value="" style="ellipse;whiteSpace=wrap;html=1;" vertex="1" parent="RA5m8bi9TABdozbW4E4G-44">
          <mxGeometry x="40" y="30" width="260" height="20" as="geometry" />
        </mxCell>
        <mxCell id="RA5m8bi9TABdozbW4E4G-50" value="" style="ellipse;whiteSpace=wrap;html=1;" vertex="1" parent="RA5m8bi9TABdozbW4E4G-44">
          <mxGeometry x="40" y="60" width="260" height="20" as="geometry" />
        </mxCell>
        <mxCell id="RA5m8bi9TABdozbW4E4G-51" value="" style="ellipse;whiteSpace=wrap;html=1;" vertex="1" parent="RA5m8bi9TABdozbW4E4G-44">
          <mxGeometry x="45" y="90" width="260" height="30" as="geometry" />
        </mxCell>
        <mxCell id="RA5m8bi9TABdozbW4E4G-52" value="" style="ellipse;whiteSpace=wrap;html=1;" vertex="1" parent="RA5m8bi9TABdozbW4E4G-44">
          <mxGeometry x="45" y="130" width="260" height="20" as="geometry" />
        </mxCell>
        <mxCell id="RA5m8bi9TABdozbW4E4G-53" value="" style="ellipse;whiteSpace=wrap;html=1;" vertex="1" parent="RA5m8bi9TABdozbW4E4G-44">
          <mxGeometry x="47.5" y="160" width="260" height="20" as="geometry" />
        </mxCell>
        <mxCell id="RA5m8bi9TABdozbW4E4G-54" value="" style="ellipse;whiteSpace=wrap;html=1;" vertex="1" parent="RA5m8bi9TABdozbW4E4G-44">
          <mxGeometry x="45" y="190" width="260" height="20" as="geometry" />
        </mxCell>
        <mxCell id="RA5m8bi9TABdozbW4E4G-63" value="&lt;font style=&quot;font-size: 8px;&quot;&gt;Connect Wallet&lt;/font&gt;" style="text;html=1;align=center;verticalAlign=middle;whiteSpace=wrap;rounded=0;" vertex="1" parent="RA5m8bi9TABdozbW4E4G-44">
          <mxGeometry x="100" y="25" width="140" height="30" as="geometry" />
        </mxCell>
        <mxCell id="RA5m8bi9TABdozbW4E4G-64" value="&lt;font style=&quot;font-size: 8px;&quot;&gt;Swap Tokens&lt;/font&gt;" style="text;html=1;align=center;verticalAlign=middle;whiteSpace=wrap;rounded=0;" vertex="1" parent="RA5m8bi9TABdozbW4E4G-44">
          <mxGeometry x="100" y="60" width="140" height="20" as="geometry" />
        </mxCell>
        <mxCell id="RA5m8bi9TABdozbW4E4G-65" value="&lt;font style=&quot;font-size: 8px;&quot;&gt;View Data of Tokens, Pools and Transactions&lt;/font&gt;" style="text;html=1;align=center;verticalAlign=middle;whiteSpace=wrap;rounded=0;" vertex="1" parent="RA5m8bi9TABdozbW4E4G-44">
          <mxGeometry x="97.5" y="90" width="170" height="30" as="geometry" />
        </mxCell>
        <mxCell id="RA5m8bi9TABdozbW4E4G-66" value="&lt;font style=&quot;font-size: 8px;&quot;&gt;Buy NFTs&lt;/font&gt;" style="text;html=1;align=center;verticalAlign=middle;whiteSpace=wrap;rounded=0;" vertex="1" parent="RA5m8bi9TABdozbW4E4G-44">
          <mxGeometry x="105" y="120" width="140" height="30" as="geometry" />
        </mxCell>
        <mxCell id="RA5m8bi9TABdozbW4E4G-75" value="&lt;font style=&quot;font-size: 8px;&quot;&gt;Flash Swaps&lt;/font&gt;" style="text;html=1;align=center;verticalAlign=middle;whiteSpace=wrap;rounded=0;" vertex="1" parent="RA5m8bi9TABdozbW4E4G-44">
          <mxGeometry x="105" y="155" width="140" height="30" as="geometry" />
        </mxCell>
        <mxCell id="RA5m8bi9TABdozbW4E4G-81" value="" style="ellipse;whiteSpace=wrap;html=1;" vertex="1" parent="RA5m8bi9TABdozbW4E4G-44">
          <mxGeometry x="45" y="220" width="260" height="20" as="geometry" />
        </mxCell>
        <mxCell id="RA5m8bi9TABdozbW4E4G-84" value="&lt;font style=&quot;font-size: 8px;&quot;&gt;Participation in&amp;nbsp; Governance&lt;/font&gt;" style="text;html=1;align=center;verticalAlign=middle;whiteSpace=wrap;rounded=0;" vertex="1" parent="RA5m8bi9TABdozbW4E4G-44">
          <mxGeometry x="115" y="185" width="140" height="30" as="geometry" />
        </mxCell>
        <mxCell id="RA5m8bi9TABdozbW4E4G-94" value="" style="endArrow=classic;html=1;rounded=0;entryX=0;entryY=0.5;entryDx=0;entryDy=0;" edge="1" parent="RA5m8bi9TABdozbW4E4G-44" target="RA5m8bi9TABdozbW4E4G-104">
          <mxGeometry width="50" height="50" relative="1" as="geometry">
            <mxPoint x="-80" y="330" as="sourcePoint" />
            <mxPoint x="35" y="775" as="targetPoint" />
          </mxGeometry>
        </mxCell>
        <mxCell id="RA5m8bi9TABdozbW4E4G-104" value="" style="ellipse;whiteSpace=wrap;html=1;" vertex="1" parent="RA5m8bi9TABdozbW4E4G-44">
          <mxGeometry x="47.5" y="260" width="260" height="20" as="geometry" />
        </mxCell>
        <mxCell id="RA5m8bi9TABdozbW4E4G-106" value="&lt;font style=&quot;font-size: 8px;&quot;&gt;Analyze Market Trends&lt;/font&gt;" style="text;html=1;align=center;verticalAlign=middle;whiteSpace=wrap;rounded=0;" vertex="1" parent="RA5m8bi9TABdozbW4E4G-44">
          <mxGeometry x="107.5" y="215" width="140" height="30" as="geometry" />
        </mxCell>
        <mxCell id="RA5m8bi9TABdozbW4E4G-108" value="&lt;font style=&quot;font-size: 8px;&quot;&gt;Use Mobile Interfaces&lt;/font&gt;" style="text;html=1;align=center;verticalAlign=middle;whiteSpace=wrap;rounded=0;" vertex="1" parent="RA5m8bi9TABdozbW4E4G-44">
          <mxGeometry x="107.5" y="255" width="140" height="30" as="geometry" />
        </mxCell>
        <mxCell id="RA5m8bi9TABdozbW4E4G-95" value="" style="endArrow=classic;html=1;rounded=0;entryX=1;entryY=0.5;entryDx=0;entryDy=0;" edge="1" parent="RA5m8bi9TABdozbW4E4G-44" target="RA5m8bi9TABdozbW4E4G-163">
          <mxGeometry width="50" height="50" relative="1" as="geometry">
            <mxPoint x="470" y="530" as="sourcePoint" />
            <mxPoint x="310" y="495" as="targetPoint" />
          </mxGeometry>
        </mxCell>
        <mxCell id="RA5m8bi9TABdozbW4E4G-97" value="" style="endArrow=classic;html=1;rounded=0;" edge="1" parent="RA5m8bi9TABdozbW4E4G-44">
          <mxGeometry width="50" height="50" relative="1" as="geometry">
            <mxPoint x="470" y="530" as="sourcePoint" />
            <mxPoint x="307.5" y="595.985811965812" as="targetPoint" />
          </mxGeometry>
        </mxCell>
        <mxCell id="RA5m8bi9TABdozbW4E4G-110" value="" style="endArrow=classic;html=1;rounded=0;" edge="1" parent="RA5m8bi9TABdozbW4E4G-44" target="RA5m8bi9TABdozbW4E4G-148">
          <mxGeometry width="50" height="50" relative="1" as="geometry">
            <mxPoint x="-80" y="330" as="sourcePoint" />
            <mxPoint x="45" y="415" as="targetPoint" />
          </mxGeometry>
        </mxCell>
        <mxCell id="RA5m8bi9TABdozbW4E4G-114" value="" style="endArrow=classic;html=1;rounded=0;" edge="1" parent="RA5m8bi9TABdozbW4E4G-44">
          <mxGeometry width="50" height="50" relative="1" as="geometry">
            <mxPoint x="470" y="530" as="sourcePoint" />
            <mxPoint x="306.2500000000002" y="298.485811965812" as="targetPoint" />
          </mxGeometry>
        </mxCell>
        <mxCell id="RA5m8bi9TABdozbW4E4G-145" value="" style="endArrow=classic;html=1;rounded=0;" edge="1" parent="RA5m8bi9TABdozbW4E4G-44">
          <mxGeometry width="50" height="50" relative="1" as="geometry">
            <mxPoint x="470" y="530" as="sourcePoint" />
            <mxPoint x="307.5000000000002" y="623.9638842975205" as="targetPoint" />
          </mxGeometry>
        </mxCell>
        <mxCell id="RA5m8bi9TABdozbW4E4G-147" value="" style="ellipse;whiteSpace=wrap;html=1;" vertex="1" parent="RA5m8bi9TABdozbW4E4G-44">
          <mxGeometry x="46.25" y="285" width="260" height="25" as="geometry" />
        </mxCell>
        <mxCell id="RA5m8bi9TABdozbW4E4G-148" value="" style="ellipse;whiteSpace=wrap;html=1;" vertex="1" parent="RA5m8bi9TABdozbW4E4G-44">
          <mxGeometry x="48.75" y="320" width="260" height="20" as="geometry" />
        </mxCell>
        <mxCell id="RA5m8bi9TABdozbW4E4G-149" value="" style="ellipse;whiteSpace=wrap;html=1;" vertex="1" parent="RA5m8bi9TABdozbW4E4G-44">
          <mxGeometry x="47.5" y="350" width="260" height="20" as="geometry" />
        </mxCell>
        <mxCell id="RA5m8bi9TABdozbW4E4G-150" value="" style="ellipse;whiteSpace=wrap;html=1;" vertex="1" parent="RA5m8bi9TABdozbW4E4G-44">
          <mxGeometry x="50" y="380" width="260" height="30" as="geometry" />
        </mxCell>
        <mxCell id="RA5m8bi9TABdozbW4E4G-151" value="&lt;span style=&quot;color: rgba(0, 0, 0, 0); font-family: monospace; font-size: 0px; text-align: start; text-wrap: nowrap;&quot;&gt;%3CmxGraphModel%3E%3Croot%3E%3CmxCell%20id%3D%220%22%2F%3E%3CmxCell%20id%3D%221%22%20parent%3D%220%22%2F%3E%3CmxCell%20id%3D%222%22%20value%3D%22%22%20style%3D%22endArrow%3Dclassic%3Bhtml%3D1%3Brounded%3D0%3BentryX%3D1%3BentryY%3D0.5%3BentryDx%3D0%3BentryDy%3D0%3B%22%20edge%3D%221%22%20parent%3D%221%22%3E%3CmxGeometry%20width%3D%2250%22%20height%3D%2250%22%20relative%3D%221%22%20as%3D%22geometry%22%3E%3CmxPoint%20x%3D%22710%22%20y%3D%22540%22%20as%3D%22sourcePoint%22%2F%3E%3CmxPoint%20x%3D%22550%22%20y%3D%22547.5%22%20as%3D%22targetPoint%22%2F%3E%3C%2FmxGeometry%3E%3C%2FmxCell%3E%3C%2Froot%3E%3C%2FmxGraphModel%3E&lt;/span&gt;" style="ellipse;whiteSpace=wrap;html=1;" vertex="1" parent="RA5m8bi9TABdozbW4E4G-44">
          <mxGeometry x="47.5" y="465" width="260" height="20" as="geometry" />
        </mxCell>
        <mxCell id="RA5m8bi9TABdozbW4E4G-152" value="&lt;font style=&quot;font-size: 8px;&quot;&gt;Manage Liquidity Positions&lt;/font&gt;" style="text;html=1;align=center;verticalAlign=middle;whiteSpace=wrap;rounded=0;" vertex="1" parent="RA5m8bi9TABdozbW4E4G-44">
          <mxGeometry x="87.5" y="460" width="180" height="30" as="geometry" />
        </mxCell>
        <mxCell id="RA5m8bi9TABdozbW4E4G-153" value="&lt;font style=&quot;font-size: 8px;&quot;&gt;Create New Liquidity Pool&lt;/font&gt;" style="text;html=1;align=center;verticalAlign=middle;whiteSpace=wrap;rounded=0;" vertex="1" parent="RA5m8bi9TABdozbW4E4G-44">
          <mxGeometry x="101.25" y="282.5" width="160" height="30" as="geometry" />
        </mxCell>
        <mxCell id="RA5m8bi9TABdozbW4E4G-154" value="" style="ellipse;whiteSpace=wrap;html=1;" vertex="1" parent="RA5m8bi9TABdozbW4E4G-44">
          <mxGeometry x="47.5" y="425" width="260" height="25" as="geometry" />
        </mxCell>
        <mxCell id="RA5m8bi9TABdozbW4E4G-155" value="&lt;font style=&quot;font-size: 8px;&quot;&gt;Add Liquidity to Pool&lt;/font&gt;" style="text;html=1;align=center;verticalAlign=middle;whiteSpace=wrap;rounded=0;" vertex="1" parent="RA5m8bi9TABdozbW4E4G-44">
          <mxGeometry x="100" y="312.5" width="160" height="30" as="geometry" />
        </mxCell>
        <mxCell id="RA5m8bi9TABdozbW4E4G-158" value="&lt;font style=&quot;font-size: 8px;&quot;&gt;Remove Liquidity from Pool&lt;/font&gt;" style="text;html=1;align=center;verticalAlign=middle;whiteSpace=wrap;rounded=0;" vertex="1" parent="RA5m8bi9TABdozbW4E4G-44">
          <mxGeometry x="105" y="342.5" width="160" height="30" as="geometry" />
        </mxCell>
        <mxCell id="RA5m8bi9TABdozbW4E4G-159" value="&lt;font style=&quot;font-size: 8px;&quot;&gt;Participate in Yield Farming and Trading&lt;/font&gt;" style="text;html=1;align=center;verticalAlign=middle;whiteSpace=wrap;rounded=0;" vertex="1" parent="RA5m8bi9TABdozbW4E4G-44">
          <mxGeometry x="97.5" y="380" width="160" height="30" as="geometry" />
        </mxCell>
        <mxCell id="RA5m8bi9TABdozbW4E4G-160" value="&lt;font style=&quot;font-size: 8px;&quot;&gt;Earn Trading Fees&lt;/font&gt;" style="text;html=1;align=center;verticalAlign=middle;whiteSpace=wrap;rounded=0;" vertex="1" parent="RA5m8bi9TABdozbW4E4G-44">
          <mxGeometry x="97.5" y="420" width="160" height="30" as="geometry" />
        </mxCell>
        <mxCell id="RA5m8bi9TABdozbW4E4G-161" value="&lt;span style=&quot;color: rgba(0, 0, 0, 0); font-family: monospace; font-size: 0px; text-align: start; text-wrap: nowrap;&quot;&gt;%3CmxGraphModel%3E%3Croot%3E%3CmxCell%20id%3D%220%22%2F%3E%3CmxCell%20id%3D%221%22%20parent%3D%220%22%2F%3E%3CmxCell%20id%3D%222%22%20value%3D%22%22%20style%3D%22endArrow%3Dclassic%3Bhtml%3D1%3Brounded%3D0%3BentryX%3D1%3BentryY%3D0.5%3BentryDx%3D0%3BentryDy%3D0%3B%22%20edge%3D%221%22%20parent%3D%221%22%3E%3CmxGeometry%20width%3D%2250%22%20height%3D%2250%22%20relative%3D%221%22%20as%3D%22geometry%22%3E%3CmxPoint%20x%3D%22710%22%20y%3D%22540%22%20as%3D%22sourcePoint%22%2F%3E%3CmxPoint%20x%3D%22550%22%20y%3D%22547.5%22%20as%3D%22targetPoint%22%2F%3E%3C%2FmxGeometry%3E%3C%2FmxCell%3E%3C%2Froot%3E%3C%2FmxGraphModel%3E&lt;/span&gt;" style="ellipse;whiteSpace=wrap;html=1;" vertex="1" parent="RA5m8bi9TABdozbW4E4G-44">
          <mxGeometry x="47.5" y="495" width="260" height="20" as="geometry" />
        </mxCell>
        <mxCell id="RA5m8bi9TABdozbW4E4G-162" value="&lt;span style=&quot;color: rgba(0, 0, 0, 0); font-family: monospace; font-size: 0px; text-align: start; text-wrap: nowrap;&quot;&gt;%3CmxGraphModel%3E%3Croot%3E%3CmxCell%20id%3D%220%22%2F%3E%3CmxCell%20id%3D%221%22%20parent%3D%220%22%2F%3E%3CmxCell%20id%3D%222%22%20value%3D%22%22%20style%3D%22endArrow%3Dclassic%3Bhtml%3D1%3Brounded%3D0%3BentryX%3D1%3BentryY%3D0.5%3BentryDx%3D0%3BentryDy%3D0%3B%22%20edge%3D%221%22%20parent%3D%221%22%3E%3CmxGeometry%20width%3D%2250%22%20height%3D%2250%22%20relative%3D%221%22%20as%3D%22geometry%22%3E%3CmxPoint%20x%3D%22710%22%20y%3D%22540%22%20as%3D%22sourcePoint%22%2F%3E%3CmxPoint%20x%3D%22550%22%20y%3D%22547.5%22%20as%3D%22targetPoint%22%2F%3E%3C%2FmxGeometry%3E%3C%2FmxCell%3E%3C%2Froot%3E%3C%2FmxGraphModel%3E&lt;/span&gt;" style="ellipse;whiteSpace=wrap;html=1;" vertex="1" parent="RA5m8bi9TABdozbW4E4G-44">
          <mxGeometry x="42.5" y="525" width="260" height="20" as="geometry" />
        </mxCell>
        <mxCell id="RA5m8bi9TABdozbW4E4G-163" value="&lt;span style=&quot;color: rgba(0, 0, 0, 0); font-family: monospace; font-size: 0px; text-align: start; text-wrap: nowrap;&quot;&gt;%3CmxGraphModel%3E%3Croot%3E%3CmxCell%20id%3D%220%22%2F%3E%3CmxCell%20id%3D%221%22%20parent%3D%220%22%2F%3E%3CmxCell%20id%3D%222%22%20value%3D%22%22%20style%3D%22endArrow%3Dclassic%3Bhtml%3D1%3Brounded%3D0%3BentryX%3D1%3BentryY%3D0.5%3BentryDx%3D0%3BentryDy%3D0%3B%22%20edge%3D%221%22%20parent%3D%221%22%3E%3CmxGeometry%20width%3D%2250%22%20height%3D%2250%22%20relative%3D%221%22%20as%3D%22geometry%22%3E%3CmxPoint%20x%3D%22710%22%20y%3D%22540%22%20as%3D%22sourcePoint%22%2F%3E%3CmxPoint%20x%3D%22550%22%20y%3D%22547.5%22%20as%3D%22targetPoint%22%2F%3E%3C%2FmxGeometry%3E%3C%2FmxCell%3E%3C%2Froot%3E%3C%2FmxGraphModel%3E&lt;/span&gt;" style="ellipse;whiteSpace=wrap;html=1;" vertex="1" parent="RA5m8bi9TABdozbW4E4G-44">
          <mxGeometry x="47.5" y="555" width="260" height="20" as="geometry" />
        </mxCell>
        <mxCell id="RA5m8bi9TABdozbW4E4G-164" value="&lt;span style=&quot;color: rgba(0, 0, 0, 0); font-family: monospace; font-size: 0px; text-align: start; text-wrap: nowrap;&quot;&gt;%3CmxGraphModel%3E%3Croot%3E%3CmxCell%20id%3D%220%22%2F%3E%3CmxCell%20id%3D%221%22%20parent%3D%220%22%2F%3E%3CmxCell%20id%3D%222%22%20value%3D%22%22%20style%3D%22endArrow%3Dclassic%3Bhtml%3D1%3Brounded%3D0%3BentryX%3D1%3BentryY%3D0.5%3BentryDx%3D0%3BentryDy%3D0%3B%22%20edge%3D%221%22%20parent%3D%221%22%3E%3CmxGeometry%20width%3D%2250%22%20height%3D%2250%22%20relative%3D%221%22%20as%3D%22geometry%22%3E%3CmxPoint%20x%3D%22710%22%20y%3D%22540%22%20as%3D%22sourcePoint%22%2F%3E%3CmxPoint%20x%3D%22550%22%20y%3D%22547.5%22%20as%3D%22targetPoint%22%2F%3E%3C%2FmxGeometry%3E%3C%2FmxCell%3E%3C%2Froot%3E%3C%2FmxGraphModel%3E&lt;/span&gt;" style="ellipse;whiteSpace=wrap;html=1;" vertex="1" parent="RA5m8bi9TABdozbW4E4G-44">
          <mxGeometry x="47.5" y="585" width="260" height="20" as="geometry" />
        </mxCell>
        <mxCell id="RA5m8bi9TABdozbW4E4G-165" value="&lt;span style=&quot;color: rgba(0, 0, 0, 0); font-family: monospace; font-size: 0px; text-align: start; text-wrap: nowrap;&quot;&gt;%3CmxGraphModel%3E%3Croot%3E%3CmxCell%20id%3D%220%22%2F%3E%3CmxCell%20id%3D%221%22%20parent%3D%220%22%2F%3E%3CmxCell%20id%3D%222%22%20value%3D%22%22%20style%3D%22endArrow%3Dclassic%3Bhtml%3D1%3Brounded%3D0%3BentryX%3D1%3BentryY%3D0.5%3BentryDx%3D0%3BentryDy%3D0%3B%22%20edge%3D%221%22%20parent%3D%221%22%3E%3CmxGeometry%20width%3D%2250%22%20height%3D%2250%22%20relative%3D%221%22%20as%3D%22geometry%22%3E%3CmxPoint%20x%3D%22710%22%20y%3D%22540%22%20as%3D%22sourcePoint%22%2F%3E%3CmxPoint%20x%3D%22550%22%20y%3D%22547.5%22%20as%3D%22targetPoint%22%2F%3E%3C%2FmxGeometry%3E%3C%2FmxCell%3E%3C%2Froot%3E%3C%2FmxGraphModel%3E&lt;/span&gt;" style="ellipse;whiteSpace=wrap;html=1;" vertex="1" parent="RA5m8bi9TABdozbW4E4G-44">
          <mxGeometry x="47.5" y="615" width="260" height="20" as="geometry" />
        </mxCell>
        <mxCell id="RA5m8bi9TABdozbW4E4G-166" value="&lt;span style=&quot;color: rgba(0, 0, 0, 0); font-family: monospace; font-size: 0px; text-align: start; text-wrap: nowrap;&quot;&gt;%3CmxGraphModel%3E%3Croot%3E%3CmxCell%20id%3D%220%22%2F%3E%3CmxCell%20id%3D%221%22%20parent%3D%220%22%2F%3E%3CmxCell%20id%3D%222%22%20value%3D%22%22%20style%3D%22endArrow%3Dclassic%3Bhtml%3D1%3Brounded%3D0%3BentryX%3D1%3BentryY%3D0.5%3BentryDx%3D0%3BentryDy%3D0%3B%22%20edge%3D%221%22%20parent%3D%221%22%3E%3CmxGeometry%20width%3D%2250%22%20height%3D%2250%22%20relative%3D%221%22%20as%3D%22geometry%22%3E%3CmxPoint%20x%3D%22710%22%20y%3D%22540%22%20as%3D%22sourcePoint%22%2F%3E%3CmxPoint%20x%3D%22550%22%20y%3D%22547.5%22%20as%3D%22targetPoint%22%2F%3E%3C%2FmxGeometry%3E%3C%2FmxCell%3E%3C%2Froot%3E%3C%2FmxGraphModel%3E&lt;/span&gt;" style="ellipse;whiteSpace=wrap;html=1;" vertex="1" parent="RA5m8bi9TABdozbW4E4G-44">
          <mxGeometry x="47.5" y="750" width="260" height="30" as="geometry" />
        </mxCell>
        <mxCell id="RA5m8bi9TABdozbW4E4G-167" value="&lt;span style=&quot;color: rgba(0, 0, 0, 0); font-family: monospace; font-size: 0px; text-align: start; text-wrap: nowrap;&quot;&gt;%3CmxGraphModel%3E%3Croot%3E%3CmxCell%20id%3D%220%22%2F%3E%3CmxCell%20id%3D%221%22%20parent%3D%220%22%2F%3E%3CmxCell%20id%3D%222%22%20value%3D%22%22%20style%3D%22endArrow%3Dclassic%3Bhtml%3D1%3Brounded%3D0%3BentryX%3D1%3BentryY%3D0.5%3BentryDx%3D0%3BentryDy%3D0%3B%22%20edge%3D%221%22%20parent%3D%221%22%3E%3CmxGeometry%20width%3D%2250%22%20height%3D%2250%22%20relative%3D%221%22%20as%3D%22geometry%22%3E%3CmxPoint%20x%3D%22710%22%20y%3D%22540%22%20as%3D%22sourcePoint%22%2F%3E%3CmxPoint%20x%3D%22550%22%20y%3D%22547.5%22%20as%3D%22targetPoint%22%2F%3E%3C%2FmxGeometry%3E%3C%2FmxCell%3E%3C%2Froot%3E%3C%2FmxGraphModel%3E&lt;/span&gt;" style="ellipse;whiteSpace=wrap;html=1;" vertex="1" parent="RA5m8bi9TABdozbW4E4G-44">
          <mxGeometry x="47.5" y="675" width="260" height="20" as="geometry" />
        </mxCell>
        <mxCell id="RA5m8bi9TABdozbW4E4G-168" value="&lt;span style=&quot;color: rgba(0, 0, 0, 0); font-family: monospace; font-size: 0px; text-align: start; text-wrap: nowrap;&quot;&gt;%3CmxGraphModel%3E%3Croot%3E%3CmxCell%20id%3D%220%22%2F%3E%3CmxCell%20id%3D%221%22%20parent%3D%220%22%2F%3E%3CmxCell%20id%3D%222%22%20value%3D%22%22%20style%3D%22endArrow%3Dclassic%3Bhtml%3D1%3Brounded%3D0%3BentryX%3D1%3BentryY%3D0.5%3BentryDx%3D0%3BentryDy%3D0%3B%22%20edge%3D%221%22%20parent%3D%221%22%3E%3CmxGeometry%20width%3D%2250%22%20height%3D%2250%22%20relative%3D%221%22%20as%3D%22geometry%22%3E%3CmxPoint%20x%3D%22710%22%20y%3D%22540%22%20as%3D%22sourcePoint%22%2F%3E%3CmxPoint%20x%3D%22550%22%20y%3D%22547.5%22%20as%3D%22targetPoint%22%2F%3E%3C%2FmxGeometry%3E%3C%2FmxCell%3E%3C%2Froot%3E%3C%2FmxGraphModel%3E&lt;/span&gt;" style="ellipse;whiteSpace=wrap;html=1;" vertex="1" parent="RA5m8bi9TABdozbW4E4G-44">
          <mxGeometry x="47.5" y="710" width="260" height="30" as="geometry" />
        </mxCell>
        <mxCell id="RA5m8bi9TABdozbW4E4G-169" value="&lt;span style=&quot;color: rgba(0, 0, 0, 0); font-family: monospace; font-size: 0px; text-align: start; text-wrap: nowrap;&quot;&gt;%3CmxGraphModel%3E%3Croot%3E%3CmxCell%20id%3D%220%22%2F%3E%3CmxCell%20id%3D%221%22%20parent%3D%220%22%2F%3E%3CmxCell%20id%3D%222%22%20value%3D%22%22%20style%3D%22endArrow%3Dclassic%3Bhtml%3D1%3Brounded%3D0%3BentryX%3D1%3BentryY%3D0.5%3BentryDx%3D0%3BentryDy%3D0%3B%22%20edge%3D%221%22%20parent%3D%221%22%3E%3CmxGeometry%20width%3D%2250%22%20height%3D%2250%22%20relative%3D%221%22%20as%3D%22geometry%22%3E%3CmxPoint%20x%3D%22710%22%20y%3D%22540%22%20as%3D%22sourcePoint%22%2F%3E%3CmxPoint%20x%3D%22550%22%20y%3D%22547.5%22%20as%3D%22targetPoint%22%2F%3E%3C%2FmxGeometry%3E%3C%2FmxCell%3E%3C%2Froot%3E%3C%2FmxGraphModel%3E&lt;/span&gt;" style="ellipse;whiteSpace=wrap;html=1;" vertex="1" parent="RA5m8bi9TABdozbW4E4G-44">
          <mxGeometry x="47.5" y="645" width="260" height="20" as="geometry" />
        </mxCell>
        <mxCell id="RA5m8bi9TABdozbW4E4G-170" value="&lt;span style=&quot;color: rgba(0, 0, 0, 0); font-family: monospace; font-size: 0px; text-align: start; text-wrap: nowrap;&quot;&gt;%3CmxGraphModel%3E%3Croot%3E%3CmxCell%20id%3D%220%22%2F%3E%3CmxCell%20id%3D%221%22%20parent%3D%220%22%2F%3E%3CmxCell%20id%3D%222%22%20value%3D%22%22%20style%3D%22endArrow%3Dclassic%3Bhtml%3D1%3Brounded%3D0%3BentryX%3D1%3BentryY%3D0.5%3BentryDx%3D0%3BentryDy%3D0%3B%22%20edge%3D%221%22%20parent%3D%221%22%3E%3CmxGeometry%20width%3D%2250%22%20height%3D%2250%22%20relative%3D%221%22%20as%3D%22geometry%22%3E%3CmxPoint%20x%3D%22710%22%20y%3D%22540%22%20as%3D%22sourcePoint%22%2F%3E%3CmxPoint%20x%3D%22550%22%20y%3D%22547.5%22%20as%3D%22targetPoint%22%2F%3E%3C%2FmxGeometry%3E%3C%2FmxCell%3E%3C%2Froot%3E%3C%2FmxGraphModel%3E&lt;/span&gt;" style="ellipse;whiteSpace=wrap;html=1;" vertex="1" parent="RA5m8bi9TABdozbW4E4G-44">
          <mxGeometry x="50" y="790" width="260" height="30" as="geometry" />
        </mxCell>
        <mxCell id="RA5m8bi9TABdozbW4E4G-171" value="&lt;font style=&quot;font-size: 8px;&quot;&gt;Diversify Liquidity Positions&lt;/font&gt;" style="text;html=1;align=center;verticalAlign=middle;whiteSpace=wrap;rounded=0;" vertex="1" parent="RA5m8bi9TABdozbW4E4G-44">
          <mxGeometry x="87.5" y="490" width="180" height="30" as="geometry" />
        </mxCell>
        <mxCell id="RA5m8bi9TABdozbW4E4G-172" value="&lt;font style=&quot;font-size: 8px;&quot;&gt;Engage in Flash liquidity provision&lt;/font&gt;" style="text;html=1;align=center;verticalAlign=middle;whiteSpace=wrap;rounded=0;" vertex="1" parent="RA5m8bi9TABdozbW4E4G-44">
          <mxGeometry x="72.5" y="520" width="200" height="30" as="geometry" />
        </mxCell>
        <mxCell id="RA5m8bi9TABdozbW4E4G-173" value="&lt;font style=&quot;font-size: 8px;&quot;&gt;Provide Liquidity to multiple pools&lt;/font&gt;" style="text;html=1;align=center;verticalAlign=middle;whiteSpace=wrap;rounded=0;" vertex="1" parent="RA5m8bi9TABdozbW4E4G-44">
          <mxGeometry x="77.5" y="550" width="200" height="30" as="geometry" />
        </mxCell>
        <mxCell id="RA5m8bi9TABdozbW4E4G-174" value="&lt;font style=&quot;font-size: 8px;&quot;&gt;Track Earnings&lt;/font&gt;" style="text;html=1;align=center;verticalAlign=middle;whiteSpace=wrap;rounded=0;" vertex="1" parent="RA5m8bi9TABdozbW4E4G-44">
          <mxGeometry x="82.5" y="580" width="200" height="30" as="geometry" />
        </mxCell>
        <mxCell id="RA5m8bi9TABdozbW4E4G-175" value="&lt;font style=&quot;font-size: 9px;&quot;&gt;Utilisize dashboard for liquidity management&lt;/font&gt;" style="text;html=1;align=center;verticalAlign=middle;whiteSpace=wrap;rounded=0;" vertex="1" parent="RA5m8bi9TABdozbW4E4G-44">
          <mxGeometry x="55" y="610" width="255" height="30" as="geometry" />
        </mxCell>
        <mxCell id="RA5m8bi9TABdozbW4E4G-176" value="&lt;font style=&quot;font-size: 9px;&quot;&gt;Use risk management tools for liquidity provision&lt;/font&gt;" style="text;html=1;align=center;verticalAlign=middle;whiteSpace=wrap;rounded=0;" vertex="1" parent="RA5m8bi9TABdozbW4E4G-44">
          <mxGeometry x="47.5" y="640" width="255" height="30" as="geometry" />
        </mxCell>
        <mxCell id="RA5m8bi9TABdozbW4E4G-177" value="&lt;font style=&quot;font-size: 9px;&quot;&gt;Access Liquidity incentive and rewards&lt;/font&gt;" style="text;html=1;align=center;verticalAlign=middle;whiteSpace=wrap;rounded=0;" vertex="1" parent="RA5m8bi9TABdozbW4E4G-44">
          <mxGeometry x="47.5" y="665" width="255" height="30" as="geometry" />
        </mxCell>
        <mxCell id="RA5m8bi9TABdozbW4E4G-116" value="" style="endArrow=classic;html=1;rounded=0;entryX=1;entryY=0.5;entryDx=0;entryDy=0;" edge="1" parent="RA5m8bi9TABdozbW4E4G-44">
          <mxGeometry width="50" height="50" relative="1" as="geometry">
            <mxPoint x="470" y="530" as="sourcePoint" />
            <mxPoint x="305" y="360" as="targetPoint" />
          </mxGeometry>
        </mxCell>
        <mxCell id="RA5m8bi9TABdozbW4E4G-111" value="" style="endArrow=classic;html=1;rounded=0;entryX=0;entryY=0.5;entryDx=0;entryDy=0;" edge="1" parent="RA5m8bi9TABdozbW4E4G-44">
          <mxGeometry width="50" height="50" relative="1" as="geometry">
            <mxPoint x="-70" y="330" as="sourcePoint" />
            <mxPoint x="51.250000000000455" y="361.25" as="targetPoint" />
            <Array as="points" />
          </mxGeometry>
        </mxCell>
        <mxCell id="RA5m8bi9TABdozbW4E4G-109" value="" style="endArrow=classic;html=1;rounded=0;entryX=1;entryY=0.5;entryDx=0;entryDy=0;" edge="1" parent="RA5m8bi9TABdozbW4E4G-44">
          <mxGeometry width="50" height="50" relative="1" as="geometry">
            <mxPoint x="470" y="530" as="sourcePoint" />
            <mxPoint x="306.2499999999998" y="400" as="targetPoint" />
          </mxGeometry>
        </mxCell>
        <mxCell id="RA5m8bi9TABdozbW4E4G-179" value="" style="endArrow=classic;html=1;rounded=0;entryX=1;entryY=0.5;entryDx=0;entryDy=0;" edge="1" parent="RA5m8bi9TABdozbW4E4G-44">
          <mxGeometry width="50" height="50" relative="1" as="geometry">
            <mxPoint x="470" y="530" as="sourcePoint" />
            <mxPoint x="299.9999999999998" y="535" as="targetPoint" />
          </mxGeometry>
        </mxCell>
        <mxCell id="RA5m8bi9TABdozbW4E4G-180" value="" style="endArrow=classic;html=1;rounded=0;entryX=1;entryY=0.5;entryDx=0;entryDy=0;" edge="1" parent="RA5m8bi9TABdozbW4E4G-44">
          <mxGeometry width="50" height="50" relative="1" as="geometry">
            <mxPoint x="470" y="530" as="sourcePoint" />
            <mxPoint x="307.4999999999998" y="510" as="targetPoint" />
          </mxGeometry>
        </mxCell>
        <mxCell id="RA5m8bi9TABdozbW4E4G-182" value="" style="endArrow=classic;html=1;rounded=0;entryX=1;entryY=0.5;entryDx=0;entryDy=0;" edge="1" parent="RA5m8bi9TABdozbW4E4G-44">
          <mxGeometry width="50" height="50" relative="1" as="geometry">
            <mxPoint x="470" y="530" as="sourcePoint" />
            <mxPoint x="304.9999999999998" y="475" as="targetPoint" />
          </mxGeometry>
        </mxCell>
        <mxCell id="RA5m8bi9TABdozbW4E4G-246" value="&lt;span style=&quot;color: rgba(0, 0, 0, 0); font-family: monospace; font-size: 0px; text-align: start; text-wrap: nowrap;&quot;&gt;%3CmxGraphModel%3E%3Croot%3E%3CmxCell%20id%3D%220%22%2F%3E%3CmxCell%20id%3D%221%22%20parent%3D%220%22%2F%3E%3CmxCell%20id%3D%222%22%20value%3D%22%22%20style%3D%22endArrow%3Dclassic%3Bhtml%3D1%3Brounded%3D0%3BentryX%3D1%3BentryY%3D0.5%3BentryDx%3D0%3BentryDy%3D0%3B%22%20edge%3D%221%22%20parent%3D%221%22%3E%3CmxGeometry%20width%3D%2250%22%20height%3D%2250%22%20relative%3D%221%22%20as%3D%22geometry%22%3E%3CmxPoint%20x%3D%22710%22%20y%3D%22540%22%20as%3D%22sourcePoint%22%2F%3E%3CmxPoint%20x%3D%22550%22%20y%3D%22547.5%22%20as%3D%22targetPoint%22%2F%3E%3C%2FmxGeometry%3E%3C%2FmxCell%3E%3C%2Froot%3E%3C%2FmxGraphModel%3E&lt;/span&gt;" style="ellipse;whiteSpace=wrap;html=1;" vertex="1" parent="RA5m8bi9TABdozbW4E4G-44">
          <mxGeometry x="52.5" y="830" width="260" height="30" as="geometry" />
        </mxCell>
        <mxCell id="RA5m8bi9TABdozbW4E4G-247" value="&lt;span style=&quot;color: rgba(0, 0, 0, 0); font-family: monospace; font-size: 0px; text-align: start; text-wrap: nowrap;&quot;&gt;%3CmxGraphModel%3E%3Croot%3E%3CmxCell%20id%3D%220%22%2F%3E%3CmxCell%20id%3D%221%22%20parent%3D%220%22%2F%3E%3CmxCell%20id%3D%222%22%20value%3D%22%22%20style%3D%22endArrow%3Dclassic%3Bhtml%3D1%3Brounded%3D0%3BentryX%3D1%3BentryY%3D0.5%3BentryDx%3D0%3BentryDy%3D0%3B%22%20edge%3D%221%22%20parent%3D%221%22%3E%3CmxGeometry%20width%3D%2250%22%20height%3D%2250%22%20relative%3D%221%22%20as%3D%22geometry%22%3E%3CmxPoint%20x%3D%22710%22%20y%3D%22540%22%20as%3D%22sourcePoint%22%2F%3E%3CmxPoint%20x%3D%22550%22%20y%3D%22547.5%22%20as%3D%22targetPoint%22%2F%3E%3C%2FmxGeometry%3E%3C%2FmxCell%3E%3C%2Froot%3E%3C%2FmxGraphModel%3E&lt;/span&gt;" style="ellipse;whiteSpace=wrap;html=1;" vertex="1" parent="RA5m8bi9TABdozbW4E4G-44">
          <mxGeometry x="52.5" y="870" width="260" height="30" as="geometry" />
        </mxCell>
        <mxCell id="RA5m8bi9TABdozbW4E4G-308" value="&lt;span style=&quot;color: rgba(0, 0, 0, 0); font-family: monospace; font-size: 0px; text-align: start; text-wrap: nowrap;&quot;&gt;%3CmxGraphModel%3E%3Croot%3E%3CmxCell%20id%3D%220%22%2F%3E%3CmxCell%20id%3D%221%22%20parent%3D%220%22%2F%3E%3CmxCell%20id%3D%222%22%20value%3D%22%22%20style%3D%22endArrow%3Dclassic%3Bhtml%3D1%3Brounded%3D0%3BentryX%3D1%3BentryY%3D0.5%3BentryDx%3D0%3BentryDy%3D0%3B%22%20edge%3D%221%22%20parent%3D%221%22%3E%3CmxGeometry%20width%3D%2250%22%20height%3D%2250%22%20relative%3D%221%22%20as%3D%22geometry%22%3E%3CmxPoint%20x%3D%22710%22%20y%3D%22540%22%20as%3D%22sourcePoint%22%2F%3E%3CmxPoint%20x%3D%22550%22%20y%3D%22547.5%22%20as%3D%22targetPoint%22%2F%3E%3C%2FmxGeometry%3E%3C%2FmxCell%3E%3C%2Froot%3E%3C%2FmxGraphModel%3E&lt;/span&gt;" style="ellipse;whiteSpace=wrap;html=1;" vertex="1" parent="RA5m8bi9TABdozbW4E4G-44">
          <mxGeometry x="51.25" y="910" width="260" height="30" as="geometry" />
        </mxCell>
        <mxCell id="RA5m8bi9TABdozbW4E4G-309" value="&lt;span style=&quot;color: rgba(0, 0, 0, 0); font-family: monospace; font-size: 0px; text-align: start; text-wrap: nowrap;&quot;&gt;%3CmxGraphModel%3E%3Croot%3E%3CmxCell%20id%3D%220%22%2F%3E%3CmxCell%20id%3D%221%22%20parent%3D%220%22%2F%3E%3CmxCell%20id%3D%222%22%20value%3D%22%22%20style%3D%22endArrow%3Dclassic%3Bhtml%3D1%3Brounded%3D0%3BentryX%3D1%3BentryY%3D0.5%3BentryDx%3D0%3BentryDy%3D0%3B%22%20edge%3D%221%22%20parent%3D%221%22%3E%3CmxGeometry%20width%3D%2250%22%20height%3D%2250%22%20relative%3D%221%22%20as%3D%22geometry%22%3E%3CmxPoint%20x%3D%22710%22%20y%3D%22540%22%20as%3D%22sourcePoint%22%2F%3E%3CmxPoint%20x%3D%22550%22%20y%3D%22547.5%22%20as%3D%22targetPoint%22%2F%3E%3C%2FmxGeometry%3E%3C%2FmxCell%3E%3C%2Froot%3E%3C%2FmxGraphModel%3E&lt;/span&gt;" style="ellipse;whiteSpace=wrap;html=1;" vertex="1" parent="RA5m8bi9TABdozbW4E4G-44">
          <mxGeometry x="51.25" y="950" width="260" height="30" as="geometry" />
        </mxCell>
        <mxCell id="RA5m8bi9TABdozbW4E4G-311" value="&lt;span style=&quot;color: rgba(0, 0, 0, 0); font-family: monospace; font-size: 0px; text-align: start; text-wrap: nowrap;&quot;&gt;%3CmxGraphModel%3E%3Croot%3E%3CmxCell%20id%3D%220%22%2F%3E%3CmxCell%20id%3D%221%22%20parent%3D%220%22%2F%3E%3CmxCell%20id%3D%222%22%20value%3D%22%22%20style%3D%22endArrow%3Dclassic%3Bhtml%3D1%3Brounded%3D0%3BentryX%3D1%3BentryY%3D0.5%3BentryDx%3D0%3BentryDy%3D0%3B%22%20edge%3D%221%22%20parent%3D%221%22%3E%3CmxGeometry%20width%3D%2250%22%20height%3D%2250%22%20relative%3D%221%22%20as%3D%22geometry%22%3E%3CmxPoint%20x%3D%22710%22%20y%3D%22540%22%20as%3D%22sourcePoint%22%2F%3E%3CmxPoint%20x%3D%22550%22%20y%3D%22547.5%22%20as%3D%22targetPoint%22%2F%3E%3C%2FmxGeometry%3E%3C%2FmxCell%3E%3C%2Froot%3E%3C%2FmxGraphModel%3E&lt;/span&gt;" style="ellipse;whiteSpace=wrap;html=1;" vertex="1" parent="RA5m8bi9TABdozbW4E4G-44">
          <mxGeometry x="55" y="990" width="260" height="30" as="geometry" />
        </mxCell>
        <mxCell id="RA5m8bi9TABdozbW4E4G-313" value="&lt;span style=&quot;font-size: 9px;&quot;&gt;Build Dapps, To make The Dex Better&lt;/span&gt;" style="text;html=1;align=center;verticalAlign=middle;whiteSpace=wrap;rounded=0;" vertex="1" parent="RA5m8bi9TABdozbW4E4G-44">
          <mxGeometry x="45" y="710" width="255" height="30" as="geometry" />
        </mxCell>
        <mxCell id="RA5m8bi9TABdozbW4E4G-314" value="&lt;p style=&quot;line-height: 70%;&quot;&gt;&lt;font style=&quot;font-size: 8px;&quot;&gt;Create Custom Contracts for AMMs, Liquidity incentives and advanced trading strat..&lt;/font&gt;&lt;/p&gt;" style="text;html=1;align=center;verticalAlign=middle;whiteSpace=wrap;rounded=0;" vertex="1" parent="RA5m8bi9TABdozbW4E4G-44">
          <mxGeometry x="82.5" y="750" width="197.5" height="30" as="geometry" />
        </mxCell>
        <mxCell id="RA5m8bi9TABdozbW4E4G-315" value="&lt;p style=&quot;line-height: 70%;&quot;&gt;&lt;font style=&quot;font-size: 8px;&quot;&gt;Enhance&amp;nbsp; UX/UI for DEX&lt;/font&gt;&lt;/p&gt;" style="text;html=1;align=center;verticalAlign=middle;whiteSpace=wrap;rounded=0;" vertex="1" parent="RA5m8bi9TABdozbW4E4G-44">
          <mxGeometry x="81.25" y="790" width="197.5" height="30" as="geometry" />
        </mxCell>
        <mxCell id="RA5m8bi9TABdozbW4E4G-316" value="&lt;p style=&quot;line-height: 70%;&quot;&gt;&lt;span style=&quot;font-size: 8px;&quot;&gt;Contribute to Uniswap&#39;s Open-Source Codebase&lt;/span&gt;&lt;/p&gt;" style="text;html=1;align=center;verticalAlign=middle;whiteSpace=wrap;rounded=0;" vertex="1" parent="RA5m8bi9TABdozbW4E4G-44">
          <mxGeometry x="80" y="830" width="197.5" height="30" as="geometry" />
        </mxCell>
        <mxCell id="RA5m8bi9TABdozbW4E4G-317" value="&lt;p style=&quot;line-height: 70%;&quot;&gt;&lt;span style=&quot;font-size: 8px;&quot;&gt;Perform Security Audits and formal verification of smart Contracts&lt;/span&gt;&lt;/p&gt;" style="text;html=1;align=center;verticalAlign=middle;whiteSpace=wrap;rounded=0;" vertex="1" parent="RA5m8bi9TABdozbW4E4G-44">
          <mxGeometry x="81.25" y="870" width="197.5" height="30" as="geometry" />
        </mxCell>
        <mxCell id="RA5m8bi9TABdozbW4E4G-318" value="&lt;span style=&quot;font-size: 8px;&quot;&gt;Utilize API&#39;s for market analysis tools and automated trading bots&lt;/span&gt;&lt;span style=&quot;color: rgba(0, 0, 0, 0); font-family: monospace; font-size: 0px; text-align: start; text-wrap: nowrap;&quot;&gt;%3CmxGraphModel%3E%3Croot%3E%3CmxCell%20id%3D%220%22%2F%3E%3CmxCell%20id%3D%221%22%20parent%3D%220%22%2F%3E%3CmxCell%20id%3D%222%22%20value%3D%22%26lt%3Bp%20style%3D%26quot%3Bline-height%3A%2070%25%3B%26quot%3B%26gt%3B%26lt%3Bspan%20style%3D%26quot%3Bfont-size%3A%208px%3B%26quot%3B%26gt%3BPerform%20Security%20Audits%20and%20formal%20verification%20of%20smart%20Contracts%26lt%3B%2Fspan%26gt%3B%26lt%3B%2Fp%26gt%3B%22%20style%3D%22text%3Bhtml%3D1%3Balign%3Dcenter%3BverticalAlign%3Dmiddle%3BwhiteSpace%3Dwrap%3Brounded%3D0%3B%22%20vertex%3D%221%22%20parent%3D%221%22%3E%3CmxGeometry%20x%3D%22321.25%22%20y%3D%22880%22%20width%3D%22197.5%22%20height%3D%2230%22%20as%3D%22geometry%22%2F%3E%3C%2FmxCell%3E%3C%2Froot%3E%3C%2FmxGraphModel%3E&lt;/span&gt;" style="text;html=1;align=center;verticalAlign=middle;whiteSpace=wrap;rounded=0;" vertex="1" parent="RA5m8bi9TABdozbW4E4G-44">
          <mxGeometry x="77.5" y="910" width="197.5" height="30" as="geometry" />
        </mxCell>
        <mxCell id="RA5m8bi9TABdozbW4E4G-389" value="&lt;span style=&quot;font-size: 8px;&quot;&gt;Integrate with other protocols&lt;/span&gt;" style="text;html=1;align=center;verticalAlign=middle;whiteSpace=wrap;rounded=0;" vertex="1" parent="RA5m8bi9TABdozbW4E4G-44">
          <mxGeometry x="77.5" y="950" width="197.5" height="30" as="geometry" />
        </mxCell>
        <mxCell id="RA5m8bi9TABdozbW4E4G-390" value="&lt;span style=&quot;font-size: 8px;&quot;&gt;Develop the system for Traders/Users and Liquidity Provider&lt;/span&gt;" style="text;html=1;align=center;verticalAlign=middle;whiteSpace=wrap;rounded=0;" vertex="1" parent="RA5m8bi9TABdozbW4E4G-44">
          <mxGeometry x="70" y="990" width="197.5" height="30" as="geometry" />
        </mxCell>
        <mxCell id="RA5m8bi9TABdozbW4E4G-394" value="" style="endArrow=classic;html=1;rounded=0;entryX=0;entryY=0.5;entryDx=0;entryDy=0;" edge="1" parent="RA5m8bi9TABdozbW4E4G-44">
          <mxGeometry width="50" height="50" relative="1" as="geometry">
            <mxPoint x="-80" y="850" as="sourcePoint" />
            <mxPoint x="51.25" y="760" as="targetPoint" />
          </mxGeometry>
        </mxCell>
        <mxCell id="RA5m8bi9TABdozbW4E4G-45" value="Trader/User" style="text;html=1;align=center;verticalAlign=middle;whiteSpace=wrap;rounded=0;" vertex="1" parent="1">
          <mxGeometry x="115" y="280" width="60" height="30" as="geometry" />
        </mxCell>
        <mxCell id="RA5m8bi9TABdozbW4E4G-46" value="Developer" style="text;html=1;align=center;verticalAlign=middle;whiteSpace=wrap;rounded=0;" vertex="1" parent="1">
          <mxGeometry x="115" y="810" width="60" height="30" as="geometry" />
        </mxCell>
        <mxCell id="RA5m8bi9TABdozbW4E4G-47" value="Liquidity Provider" style="text;html=1;align=center;verticalAlign=middle;whiteSpace=wrap;rounded=0;" vertex="1" parent="1">
          <mxGeometry x="695" y="480" width="60" height="30" as="geometry" />
        </mxCell>
        <mxCell id="RA5m8bi9TABdozbW4E4G-68" value="" style="endArrow=classic;html=1;rounded=0;entryX=0;entryY=0.5;entryDx=0;entryDy=0;" edge="1" parent="1" target="RA5m8bi9TABdozbW4E4G-48">
          <mxGeometry width="50" height="50" relative="1" as="geometry">
            <mxPoint x="160" y="340" as="sourcePoint" />
            <mxPoint x="210" y="290" as="targetPoint" />
          </mxGeometry>
        </mxCell>
        <mxCell id="RA5m8bi9TABdozbW4E4G-70" value="" style="endArrow=classic;html=1;rounded=0;entryX=0;entryY=0.5;entryDx=0;entryDy=0;" edge="1" parent="1" target="RA5m8bi9TABdozbW4E4G-51">
          <mxGeometry width="50" height="50" relative="1" as="geometry">
            <mxPoint x="160" y="340" as="sourcePoint" />
            <mxPoint x="310" y="225" as="targetPoint" />
          </mxGeometry>
        </mxCell>
        <mxCell id="RA5m8bi9TABdozbW4E4G-71" value="" style="endArrow=classic;html=1;rounded=0;entryX=0.013;entryY=0.664;entryDx=0;entryDy=0;entryPerimeter=0;exitX=1;exitY=0.3333333333333333;exitDx=0;exitDy=0;exitPerimeter=0;" edge="1" parent="1" source="RA5m8bi9TABdozbW4E4G-41" target="RA5m8bi9TABdozbW4E4G-50">
          <mxGeometry width="50" height="50" relative="1" as="geometry">
            <mxPoint x="170" y="349" as="sourcePoint" />
            <mxPoint x="320" y="235" as="targetPoint" />
          </mxGeometry>
        </mxCell>
        <mxCell id="RA5m8bi9TABdozbW4E4G-72" value="" style="endArrow=classic;html=1;rounded=0;entryX=0;entryY=0.5;entryDx=0;entryDy=0;exitX=1;exitY=0.3333333333333333;exitDx=0;exitDy=0;exitPerimeter=0;" edge="1" parent="1" source="RA5m8bi9TABdozbW4E4G-41" target="RA5m8bi9TABdozbW4E4G-52">
          <mxGeometry width="50" height="50" relative="1" as="geometry">
            <mxPoint x="170" y="340" as="sourcePoint" />
            <mxPoint x="300" y="336" as="targetPoint" />
          </mxGeometry>
        </mxCell>
        <mxCell id="RA5m8bi9TABdozbW4E4G-73" value="" style="endArrow=classic;html=1;rounded=0;entryX=0;entryY=0.5;entryDx=0;entryDy=0;exitX=1;exitY=0.3333333333333333;exitDx=0;exitDy=0;exitPerimeter=0;" edge="1" parent="1" source="RA5m8bi9TABdozbW4E4G-41" target="RA5m8bi9TABdozbW4E4G-53">
          <mxGeometry width="50" height="50" relative="1" as="geometry">
            <mxPoint x="170" y="350" as="sourcePoint" />
            <mxPoint x="305" y="400" as="targetPoint" />
          </mxGeometry>
        </mxCell>
        <mxCell id="RA5m8bi9TABdozbW4E4G-80" value="" style="endArrow=classic;html=1;rounded=0;entryX=0;entryY=0.5;entryDx=0;entryDy=0;exitX=1;exitY=0.3333333333333333;exitDx=0;exitDy=0;exitPerimeter=0;" edge="1" parent="1" source="RA5m8bi9TABdozbW4E4G-41" target="RA5m8bi9TABdozbW4E4G-54">
          <mxGeometry width="50" height="50" relative="1" as="geometry">
            <mxPoint x="170" y="350" as="sourcePoint" />
            <mxPoint x="310" y="405" as="targetPoint" />
          </mxGeometry>
        </mxCell>
        <mxCell id="RA5m8bi9TABdozbW4E4G-96" value="" style="endArrow=classic;html=1;rounded=0;exitX=0;exitY=0.3333333333333333;exitDx=0;exitDy=0;exitPerimeter=0;entryX=1;entryY=0.5;entryDx=0;entryDy=0;" edge="1" parent="1" source="RA5m8bi9TABdozbW4E4G-43" target="RA5m8bi9TABdozbW4E4G-148">
          <mxGeometry width="50" height="50" relative="1" as="geometry">
            <mxPoint x="700" y="540" as="sourcePoint" />
            <mxPoint x="600" y="420" as="targetPoint" />
          </mxGeometry>
        </mxCell>
        <mxCell id="RA5m8bi9TABdozbW4E4G-107" value="" style="endArrow=classic;html=1;rounded=0;exitX=1;exitY=0.3333333333333333;exitDx=0;exitDy=0;exitPerimeter=0;entryX=0;entryY=0.5;entryDx=0;entryDy=0;" edge="1" parent="1" source="RA5m8bi9TABdozbW4E4G-41" target="RA5m8bi9TABdozbW4E4G-81">
          <mxGeometry width="50" height="50" relative="1" as="geometry">
            <mxPoint x="170" y="410" as="sourcePoint" />
            <mxPoint x="290" y="420" as="targetPoint" />
          </mxGeometry>
        </mxCell>
        <mxCell id="RA5m8bi9TABdozbW4E4G-112" value="" style="endArrow=classic;html=1;rounded=0;entryX=1;entryY=0.5;entryDx=0;entryDy=0;exitX=0;exitY=0.3333333333333333;exitDx=0;exitDy=0;exitPerimeter=0;" edge="1" parent="1" source="RA5m8bi9TABdozbW4E4G-43" target="RA5m8bi9TABdozbW4E4G-81">
          <mxGeometry width="50" height="50" relative="1" as="geometry">
            <mxPoint x="705" y="425" as="sourcePoint" />
            <mxPoint x="540" y="310" as="targetPoint" />
          </mxGeometry>
        </mxCell>
        <mxCell id="RA5m8bi9TABdozbW4E4G-113" value="" style="endArrow=classic;html=1;rounded=0;entryX=1;entryY=0.5;entryDx=0;entryDy=0;" edge="1" parent="1" target="RA5m8bi9TABdozbW4E4G-104">
          <mxGeometry width="50" height="50" relative="1" as="geometry">
            <mxPoint x="710" y="540" as="sourcePoint" />
            <mxPoint x="540" y="350" as="targetPoint" />
          </mxGeometry>
        </mxCell>
        <mxCell id="RA5m8bi9TABdozbW4E4G-83" value="" style="endArrow=classic;html=1;rounded=0;entryX=0;entryY=0.5;entryDx=0;entryDy=0;exitX=1;exitY=0.3333333333333333;exitDx=0;exitDy=0;exitPerimeter=0;" edge="1" parent="1" source="RA5m8bi9TABdozbW4E4G-41">
          <mxGeometry width="50" height="50" relative="1" as="geometry">
            <mxPoint x="140" y="180" as="sourcePoint" />
            <mxPoint x="288.74999999999886" y="307.5" as="targetPoint" />
          </mxGeometry>
        </mxCell>
        <mxCell id="RA5m8bi9TABdozbW4E4G-183" value="" style="endArrow=classic;html=1;rounded=0;entryX=1;entryY=0.5;entryDx=0;entryDy=0;" edge="1" parent="1">
          <mxGeometry width="50" height="50" relative="1" as="geometry">
            <mxPoint x="710" y="540" as="sourcePoint" />
            <mxPoint x="547.4999999999998" y="450" as="targetPoint" />
          </mxGeometry>
        </mxCell>
        <mxCell id="RA5m8bi9TABdozbW4E4G-184" value="" style="endArrow=classic;html=1;rounded=0;" edge="1" parent="1">
          <mxGeometry width="50" height="50" relative="1" as="geometry">
            <mxPoint x="710" y="540" as="sourcePoint" />
            <mxPoint x="547.5000000000002" y="663.9638842975205" as="targetPoint" />
          </mxGeometry>
        </mxCell>
        <mxCell id="RA5m8bi9TABdozbW4E4G-185" value="" style="endArrow=classic;html=1;rounded=0;" edge="1" parent="1">
          <mxGeometry width="50" height="50" relative="1" as="geometry">
            <mxPoint x="710" y="540" as="sourcePoint" />
            <mxPoint x="540.0000000000002" y="693.9638842975205" as="targetPoint" />
          </mxGeometry>
        </mxCell>
        <mxCell id="RA5m8bi9TABdozbW4E4G-186" value="" style="endArrow=classic;html=1;rounded=0;entryX=0;entryY=0.5;entryDx=0;entryDy=0;exitX=0;exitY=0.3333333333333333;exitDx=0;exitDy=0;exitPerimeter=0;" edge="1" parent="1" source="RA5m8bi9TABdozbW4E4G-42" target="RA5m8bi9TABdozbW4E4G-54">
          <mxGeometry width="50" height="50" relative="1" as="geometry">
            <mxPoint x="160" y="860" as="sourcePoint" />
            <mxPoint x="240" y="762" as="targetPoint" />
          </mxGeometry>
        </mxCell>
        <mxCell id="RA5m8bi9TABdozbW4E4G-392" value="" style="endArrow=classic;html=1;rounded=0;entryX=0;entryY=0.5;entryDx=0;entryDy=0;exitX=1;exitY=0.3333333333333333;exitDx=0;exitDy=0;exitPerimeter=0;" edge="1" parent="1" source="RA5m8bi9TABdozbW4E4G-42">
          <mxGeometry width="50" height="50" relative="1" as="geometry">
            <mxPoint x="130" y="1380" as="sourcePoint" />
            <mxPoint x="285" y="730" as="targetPoint" />
          </mxGeometry>
        </mxCell>
        <mxCell id="RA5m8bi9TABdozbW4E4G-395" value="" style="endArrow=classic;html=1;rounded=0;entryX=0;entryY=0.5;entryDx=0;entryDy=0;exitX=1;exitY=0.3333333333333333;exitDx=0;exitDy=0;exitPerimeter=0;" edge="1" parent="1" source="RA5m8bi9TABdozbW4E4G-42">
          <mxGeometry width="50" height="50" relative="1" as="geometry">
            <mxPoint x="170" y="940" as="sourcePoint" />
            <mxPoint x="295" y="810" as="targetPoint" />
          </mxGeometry>
        </mxCell>
        <mxCell id="RA5m8bi9TABdozbW4E4G-396" value="" style="endArrow=classic;html=1;rounded=0;entryX=0;entryY=0.5;entryDx=0;entryDy=0;exitX=1;exitY=0.3333333333333333;exitDx=0;exitDy=0;exitPerimeter=0;" edge="1" parent="1" source="RA5m8bi9TABdozbW4E4G-42">
          <mxGeometry width="50" height="50" relative="1" as="geometry">
            <mxPoint x="170" y="980" as="sourcePoint" />
            <mxPoint x="295" y="850" as="targetPoint" />
          </mxGeometry>
        </mxCell>
        <mxCell id="RA5m8bi9TABdozbW4E4G-398" value="" style="endArrow=classic;html=1;rounded=0;entryX=0;entryY=0.5;entryDx=0;entryDy=0;" edge="1" parent="1">
          <mxGeometry width="50" height="50" relative="1" as="geometry">
            <mxPoint x="160" y="860" as="sourcePoint" />
            <mxPoint x="300" y="890" as="targetPoint" />
          </mxGeometry>
        </mxCell>
        <mxCell id="RA5m8bi9TABdozbW4E4G-399" value="" style="endArrow=classic;html=1;rounded=0;entryX=0;entryY=0.5;entryDx=0;entryDy=0;" edge="1" parent="1">
          <mxGeometry width="50" height="50" relative="1" as="geometry">
            <mxPoint x="170" y="860" as="sourcePoint" />
            <mxPoint x="295" y="930" as="targetPoint" />
          </mxGeometry>
        </mxCell>
        <mxCell id="RA5m8bi9TABdozbW4E4G-400" value="" style="endArrow=classic;html=1;rounded=0;entryX=0;entryY=0.5;entryDx=0;entryDy=0;" edge="1" parent="1">
          <mxGeometry width="50" height="50" relative="1" as="geometry">
            <mxPoint x="160" y="860" as="sourcePoint" />
            <mxPoint x="300" y="970" as="targetPoint" />
          </mxGeometry>
        </mxCell>
        <mxCell id="RA5m8bi9TABdozbW4E4G-402" value="" style="endArrow=classic;html=1;rounded=0;entryX=0;entryY=0.5;entryDx=0;entryDy=0;" edge="1" parent="1">
          <mxGeometry width="50" height="50" relative="1" as="geometry">
            <mxPoint x="160" y="860" as="sourcePoint" />
            <mxPoint x="295" y="1010" as="targetPoint" />
          </mxGeometry>
        </mxCell>
        <mxCell id="RA5m8bi9TABdozbW4E4G-403" value="" style="endArrow=classic;html=1;rounded=0;exitX=0;exitY=0.3333333333333333;exitDx=0;exitDy=0;exitPerimeter=0;" edge="1" parent="1">
          <mxGeometry width="50" height="50" relative="1" as="geometry">
            <mxPoint x="160" y="860" as="sourcePoint" />
            <mxPoint x="280" y="50" as="targetPoint" />
          </mxGeometry>
        </mxCell>
      </root>
    </mxGraphModel>
  </diagram>
</mxfile>
